<?xml version="1.0" standalone="no"?>
<svg xmlns:xlink="http://www.w3.org/1999/xlink" id="wave" style="transform:rotate(0deg); transition: 0.3s" viewBox="0 0 1440 490" version="1.1" xmlns="http://www.w3.org/2000/svg"><defs><linearGradient id="sw-gradient-0" x1="0" x2="0" y1="1" y2="0"><stop stop-color="rgba(243, 106, 62, 1)" offset="0%"/><stop stop-color="rgba(255, 179, 11, 1)" offset="100%"/></linearGradient></defs><path style="transform:translate(0, 0px); opacity:1" fill="url(#sw-gradient-0)" d="M0,196L26.7,212.3C53.3,229,107,261,160,269.5C213.3,278,267,261,320,220.5C373.3,180,427,114,480,138.8C533.3,163,587,278,640,310.3C693.3,343,747,294,800,253.2C853.3,212,907,180,960,204.2C1013.3,229,1067,310,1120,318.5C1173.3,327,1227,261,1280,196C1333.3,131,1387,65,1440,89.8C1493.3,114,1547,229,1600,285.8C1653.3,343,1707,343,1760,302.2C1813.3,261,1867,180,1920,163.3C1973.3,147,2027,196,2080,236.8C2133.3,278,2187,310,2240,277.7C2293.3,245,2347,147,2400,98C2453.3,49,2507,49,2560,106.2C2613.3,163,2667,278,2720,285.8C2773.3,294,2827,196,2880,171.5C2933.3,147,2987,196,3040,220.5C3093.3,245,3147,245,3200,212.3C3253.3,180,3307,114,3360,89.8C3413.3,65,3467,82,3520,98C3573.3,114,3627,131,3680,163.3C3733.3,196,3787,245,3813,269.5L3840,294L3840,490L3813.3,490C3786.7,490,3733,490,3680,490C3626.7,490,3573,490,3520,490C3466.7,490,3413,490,3360,490C3306.7,490,3253,490,3200,490C3146.7,490,3093,490,3040,490C2986.7,490,2933,490,2880,490C2826.7,490,2773,490,2720,490C2666.7,490,2613,490,2560,490C2506.7,490,2453,490,2400,490C2346.7,490,2293,490,2240,490C2186.7,490,2133,490,2080,490C2026.7,490,1973,490,1920,490C1866.7,490,1813,490,1760,490C1706.7,490,1653,490,1600,490C1546.7,490,1493,490,1440,490C1386.7,490,1333,490,1280,490C1226.7,490,1173,490,1120,490C1066.7,490,1013,490,960,490C906.7,490,853,490,800,490C746.7,490,693,490,640,490C586.7,490,533,490,480,490C426.7,490,373,490,320,490C266.7,490,213,490,160,490C106.7,490,53,490,27,490L0,490Z"/></svg>